HIERARCHY
ROOT Hips
{
	OFFSET 0.00000 0.00000 0.00000
	CHANNELS 6 Xposition Yposition Zposition Zrotation Yrotation Xrotation 
	JOINT LHipJoint
	{
		OFFSET 0 0 0
		CHANNELS 3 Zrotation Yrotation Xrotation
		JOINT LeftUpLeg
		{
			OFFSET 1.36337 -1.57426 1.11036
			CHANNELS 3 Zrotation Yrotation Xrotation
			JOINT LeftLeg
			{
				OFFSET 2.38468 -6.55187 0.00000
				CHANNELS 3 Zrotation Yrotation Xrotation
				JOINT LeftFoot
				{
					OFFSET 2.37166 -6.51609 0.00000
					CHANNELS 3 Zrotation Yrotation Xrotation
					JOINT LeftToeBase
					{
						OFFSET 0.29078 -0.79891 2.01393
						CHANNELS 3 Zrotation Yrotation Xrotation
						End Site
						{
							OFFSET 0.00000 -0.00000 1.07924
						}
					}
				}
			}
		}
	}
	JOINT RHipJoint
	{
		OFFSET 0 0 0
		CHANNELS 3 Zrotation Yrotation Xrotation
		JOINT RightUpLeg
		{
			OFFSET -1.36349 -1.57426 1.11036
			CHANNELS 3 Zrotation Yrotation Xrotation
			JOINT RightLeg
			{
				OFFSET -2.29562 -6.30717 0.00000
				CHANNELS 3 Zrotation Yrotation Xrotation
				JOINT RightFoot
				{
					OFFSET -2.40985 -6.62100 0.00000
					CHANNELS 3 Zrotation Yrotation Xrotation
					JOINT RightToeBase
					{
						OFFSET -0.23197 -0.63733 1.92232
						CHANNELS 3 Zrotation Yrotation Xrotation
						End Site
						{
							OFFSET -0.00000 -0.00000 1.01562
						}
					}
				}
			}
		}
	}
	JOINT LowerBack
	{
		OFFSET 0 0 0
		CHANNELS 3 Zrotation Yrotation Xrotation
		JOINT Spine
		{
			OFFSET -0.08565 2.03602 -0.24562
			CHANNELS 3 Zrotation Yrotation Xrotation
			JOINT Spine1
			{
				OFFSET -0.00036 2.05693 0.00216
				CHANNELS 3 Zrotation Yrotation Xrotation
				JOINT Neck
				{
					OFFSET 0 0 0
					CHANNELS 3 Zrotation Yrotation Xrotation
					JOINT Neck1
					{
						OFFSET -0.03664 1.69515 0.31789
						CHANNELS 3 Zrotation Yrotation Xrotation
						JOINT Head
						{
							OFFSET 0.00932 1.70181 -0.46013
							CHANNELS 3 Zrotation Yrotation Xrotation
							End Site
							{
								OFFSET 0.01243 1.77620 -0.19377
							}
						}
					}
				}
				JOINT LeftShoulder
				{
					OFFSET 0 0 0
					CHANNELS 3 Zrotation Yrotation Xrotation
					JOINT LeftArm
					{
						OFFSET 3.74344 0.81315 -0.36647
						CHANNELS 3 Zrotation Yrotation Xrotation
						JOINT LeftForeArm
						{
							OFFSET 4.97185 -0.00000 -0.00000
							CHANNELS 3 Zrotation Yrotation Xrotation
							JOINT LeftHand
							{
								OFFSET 3.35811 -0.00000 0.00000
								CHANNELS 3 Zrotation Yrotation Xrotation
								JOINT LeftFingerBase
								{
									OFFSET 0 0 0
									CHANNELS 3 Zrotation Yrotation Xrotation
									JOINT LeftHandIndex1
									{
										OFFSET 0.62278 -0.00000 0.00000
										CHANNELS 3 Zrotation Yrotation Xrotation
										End Site
										{
											OFFSET 0.50210 -0.00000 0.00000
										}
									}
								}
								JOINT LThumb
								{
									OFFSET 0 0 0
									CHANNELS 3 Zrotation Yrotation Xrotation
									End Site
									{
										OFFSET 0.50976 -0.00000 0.50976
									}
								}
							}
						}
					}
				}
				JOINT RightShoulder
				{
					OFFSET 0 0 0
					CHANNELS 3 Zrotation Yrotation Xrotation
					JOINT RightArm
					{
						OFFSET -3.75385 0.50666 -0.06525
						CHANNELS 3 Zrotation Yrotation Xrotation
						JOINT RightForeArm
						{
							OFFSET -4.96493 -0.00000 -0.00000
							CHANNELS 3 Zrotation Yrotation Xrotation
							JOINT RightHand
							{
								OFFSET -3.34929 -0.00000 0.00000
								CHANNELS 3 Zrotation Yrotation Xrotation
								JOINT RightFingerBase
								{
									OFFSET 0 0 0
									CHANNELS 3 Zrotation Yrotation Xrotation
									JOINT RightHandIndex1
									{
										OFFSET -0.63804 -0.00000 0.00000
										CHANNELS 3 Zrotation Yrotation Xrotation
										End Site
										{
											OFFSET -0.51441 -0.00000 0.00000
										}
									}
								}
								JOINT RThumb
								{
									OFFSET 0 0 0
									CHANNELS 3 Zrotation Yrotation Xrotation
									End Site
									{
										OFFSET -0.52226 -0.00000 0.52226
									}
								}
							}
						}
					}
				}
			}
		}
	}
}
MOTION
Frames: 10
Frame Time: .0083333
-5.0534 16.8525 -4.5313 476.9690 -85.5495 242.0440 0.0000 0.0000 0.0000 -26.8686 -1.3352 -1.9517 1.3419 7.3343 20.7096 0.8582 2.3632 -18.5061 0.3812 3.9652 10.9789 0.0000 0.0000 0.0000 8.1701 -7.6404 -20.4029 -12.0673 -18.4190 66.2020 -0.0509 -3.1354 -6.5462 -0.4382 -4.2475 11.7742 -7.6088 -1.2881 -2.3599 -0.6595 -1.4593 1.2093 3.5099 -0.8661 2.7546 -1.7395 2.6650 -22.0121 1.8654 3.1447 35.2438 1.6543 1.0190 16.2394 -0.0000 0.0000 0.0000 -87.4244 -6.3076 20.8641 9.3117 -15.6558 -1.2829 -0.0000 -0.0000 5.2223 20.7522 -10.7174 -4.0306 -7.1250 0.0000 -0.0000 -4.4559 18.5576 2.8146 -0.0000 0.0000 0.0000 88.0098 -4.9849 7.2177 -12.1080 19.9664 -2.1390 0.0000 0.0000 0.8512 -10.1084 -30.1515 5.1170 7.1250 -0.0000 -0.0000 23.8834 -58.8919 -8.4107
-5.1867 16.8348 -4.5076 465.6290 -85.3173 253.3350 0.0000 0.0000 0.0000 -27.6186 -1.4764 -1.4098 1.3584 7.3775 20.8388 0.8999 1.8081 -18.6595 0.3577 3.8425 10.6340 0.0000 0.0000 0.0000 7.5940 -8.4376 -21.4054 -11.8797 -18.3393 65.6070 -0.1105 -2.2038 -7.4951 -0.2749 -3.3725 9.3177 -7.9993 -1.5794 -1.9966 -0.7799 -1.8814 0.9628 3.5940 -1.0617 2.3528 -1.8477 2.6644 -21.6705 1.9528 3.1245 35.3171 1.6995 1.0009 16.1898 0.0000 -0.0000 0.0000 -87.2873 -6.3596 21.4303 9.4687 -15.9043 -1.3256 -0.0000 -0.0000 5.2768 21.2838 -11.7420 -4.5328 -7.1250 0.0000 -0.0000 -4.1107 17.4246 2.6981 0.0000 -0.0000 0.0000 87.9106 -5.8082 6.2405 -11.9907 19.7908 -2.0992 0.0000 0.0000 1.1645 -10.1205 -30.2532 5.1388 7.1250 -0.0000 -0.0000 23.9513 -58.9867 -8.4915
-5.3317 16.8316 -4.5064 462.7200 -85.5050 256.2240 0.0000 0.0000 0.0000 -27.5214 -1.5290 -0.8696 1.3650 7.3946 20.8898 0.9336 1.7107 -18.9469 0.3076 3.5655 9.8573 0.0000 0.0000 0.0000 8.1388 -8.3386 -22.2863 -11.6392 -18.2340 64.8407 -0.1471 -2.3730 -8.5242 -0.2474 -3.2004 8.8371 -8.0198 -1.7604 -2.3467 -0.6670 -2.0779 1.1808 3.6975 -1.1828 2.8069 -1.7879 2.7072 -21.8260 1.9170 3.1951 35.2116 1.6895 1.0397 16.1744 -0.0000 -0.0000 0.0000 -87.0898 -7.2176 21.9846 9.5848 -16.0876 -1.3576 -0.0000 -0.0000 4.7952 22.9925 -13.8643 -5.8057 -7.1250 0.0000 -0.0000 -3.0238 14.9854 2.1421 -0.0000 -0.0000 0.0000 87.8586 -5.8293 4.9606 -11.7663 19.4532 -2.0238 0.0000 0.0000 2.0225 -9.9633 -30.2967 5.0643 7.1250 -0.0000 -0.0000 24.1465 -58.9908 -8.5683
-5.4615 16.8197 -4.5005 458.7000 -85.6406 260.2440 0.0000 0.0000 0.0000 -27.5011 -1.5478 -0.4091 1.3870 7.4514 21.0598 0.9716 1.6102 -19.2678 0.2895 3.4599 9.5619 0.0000 0.0000 0.0000 8.5711 -8.2584 -23.2056 -11.3678 -18.1104 63.9704 -0.1928 -2.6200 -9.6883 -0.2085 -2.9402 8.1124 -7.9136 -1.8793 -2.1493 -0.6715 -2.2630 1.0814 3.6315 -1.2630 2.6103 -1.5810 2.7344 -21.8039 1.8235 3.1829 35.2376 1.6106 1.0472 16.1903 -0.0000 0.0000 0.0000 -86.7129 -7.6430 22.9628 9.8042 -16.4328 -1.4191 -0.0000 -0.0000 3.6752 22.4500 -11.9562 -4.8925 -7.1250 0.0000 -0.0000 -3.3047 17.0882 2.1914 -0.0000 0.0000 0.0000 87.9240 -6.3987 4.0919 -11.6251 19.2400 -1.9770 0.0000 0.0000 2.2818 -9.9490 -30.2409 5.0485 7.1250 -0.0000 -0.0000 24.1167 -58.9371 -8.5255
-5.5828 16.7969 -4.4908 453.1440 -85.6047 265.8770 0.0000 0.0000 0.0000 -27.6156 -1.3592 -0.1542 1.4209 7.5382 21.3200 1.0279 0.9873 -19.5387 0.2945 3.4897 9.6451 0.0000 0.0000 0.0000 8.7607 -8.3447 -24.1919 -11.0645 -17.9665 62.9907 -0.2374 -2.6717 -10.5873 -0.1937 -2.8340 7.8169 -8.0031 -2.0741 -2.2123 -0.6556 -2.5109 1.1473 3.6800 -1.3949 2.7500 -1.5790 2.7362 -21.9222 1.8394 3.1990 35.0448 1.6200 1.0671 16.1215 -0.0000 -0.0000 0.0000 -86.4286 -8.2932 23.8537 10.0694 -16.8481 -1.4950 -0.0000 -0.0000 2.6286 23.6202 -10.4683 -4.5429 -7.1250 0.0000 -0.0000 -2.4212 18.5840 1.5247 -0.0000 -0.0000 0.0000 87.8557 -6.5581 3.5519 -11.4760 19.0141 -1.9281 0.0000 0.0000 2.2469 -10.3671 -30.3855 5.2868 7.1250 -0.0000 -0.0000 23.8039 -59.1619 -8.5365
-5.7099 16.7709 -4.4786 447.6070 -85.5880 271.4730 0.0000 0.0000 0.0000 -27.6824 -1.2747 0.1557 1.4575 7.6306 21.5975 1.0225 0.7217 -19.3842 0.2896 3.4609 9.5648 0.0000 0.0000 0.0000 8.9764 -8.5472 -25.0297 -10.7129 -17.7917 61.8458 -0.2774 -2.6139 -11.2626 -0.2582 -3.2691 9.0288 -7.9663 -2.2950 -2.1851 -0.6147 -2.8111 1.1028 3.6864 -1.5416 2.7259 -1.6540 2.7659 -21.8990 1.8647 3.2725 34.9098 1.6553 1.0970 16.0441 0.0000 -0.0000 0.0000 -86.1990 -8.6314 24.5752 10.3841 -17.3381 -1.5875 -0.0000 -0.0000 1.7629 23.7902 -9.8729 -4.3227 -7.1250 0.0000 -0.0000 -2.2765 19.2152 1.4015 0.0000 -0.0000 0.0000 87.7757 -6.8640 2.5138 -11.3485 18.8204 -1.8868 0.0000 0.0000 2.5885 -10.2788 -30.2561 5.2209 7.1250 -0.0000 -0.0000 23.7917 -59.0248 -8.4527
-5.8399 16.7612 -4.4731 443.9300 -85.7513 275.2290 0.0000 0.0000 0.0000 -27.5268 -1.4397 0.5161 1.4888 7.7084 21.8320 1.0553 0.6658 -19.6676 0.2681 3.3308 9.2012 0.0000 0.0000 0.0000 9.5406 -8.4094 -25.7717 -10.2972 -17.5736 60.4771 -0.3150 -2.8411 -12.0352 -0.3152 -3.6091 9.9795 -7.7357 -2.4041 -2.0098 -0.5704 -2.9879 0.9175 3.6066 -1.6107 2.4459 -1.5465 2.7991 -21.6489 1.8268 3.2832 34.8195 1.6146 1.1119 15.9437 0.0000 -0.0000 0.0000 -85.8864 -8.8273 25.3410 10.6064 -17.6824 -1.6544 -0.0000 -0.0000 0.8812 21.6635 -10.6147 -4.1847 -7.1250 0.0000 -0.0000 -3.8095 18.5931 2.4013 0.0000 -0.0000 0.0000 87.8776 -7.4118 1.2453 -11.2726 18.7048 -1.8624 0.0000 0.0000 2.9004 -9.9682 -30.3941 5.0815 7.1250 -0.0000 -0.0000 24.2193 -59.0798 -8.6483
-5.9698 16.7588 -4.4734 441.2640 -85.8430 277.9880 0.0000 0.0000 0.0000 -27.4042 -1.4482 0.8495 1.5046 7.7475 21.9496 1.1188 0.3598 -20.1315 0.2126 2.9688 8.1919 0.0000 0.0000 0.0000 10.0812 -8.0403 -26.4219 -9.8337 -17.3153 58.9312 -0.3614 -3.2505 -13.0221 -0.2835 -3.4246 9.4632 -7.6208 -2.4444 -2.1753 -0.5541 -3.0265 0.9854 3.5481 -1.6353 2.6091 -1.5200 2.7355 -21.6347 1.9052 3.1560 34.6514 1.6160 1.0826 15.8598 -0.0000 -0.0000 0.0000 -85.5360 -9.4708 26.4312 10.8027 -17.9852 -1.7145 -0.0000 0.0000 -0.0486 21.7150 -10.1611 -4.0189 -7.1250 0.0000 -0.0000 -3.7605 19.0734 2.3302 -0.0000 -0.0000 0.0000 88.0659 -7.5257 -0.3708 -11.0753 18.4036 -1.7996 0.0000 0.0000 3.4181 -9.8209 -30.4959 5.0204 7.1250 -0.0000 -0.0000 24.4516 -59.1385 -8.7724
-6.1032 16.7496 -4.4696 438.1980 -85.6737 281.1170 0.0000 0.0000 0.0000 -27.5422 -1.1757 1.2921 1.4926 7.7179 21.8605 1.1781 -0.2162 -20.4574 0.1462 2.4638 6.7893 0.0000 0.0000 0.0000 10.2370 -7.8327 -26.9829 -9.3433 -17.0236 57.2700 -0.4005 -3.5775 -13.8092 -0.2276 -3.0709 8.4763 -7.8390 -2.6097 -1.9450 -0.4550 -3.2737 0.7413 3.7759 -1.7440 2.2739 -1.5546 2.7767 -21.4318 1.7932 3.2542 34.7595 1.5893 1.0937 15.8645 -0.0000 -0.0000 0.0000 -85.3755 -9.3770 27.4325 11.2297 -18.6395 -1.8487 -0.0000 0.0000 -1.1025 21.9517 -9.4268 -3.7768 -7.1250 0.0000 -0.0000 -3.5736 19.8409 2.1527 -0.0000 -0.0000 0.0000 87.9034 -8.2499 -1.2886 -10.9669 18.2375 -1.7655 0.0000 0.0000 3.7995 -9.8276 -30.4964 5.0239 7.1250 -0.0000 -0.0000 24.4452 -59.1405 -8.7711
-6.2378 16.7402 -4.4611 435.6640 -85.3122 283.6970 0.0000 0.0000 0.0000 -27.8864 -0.9008 1.8840 1.4517 7.6159 21.5535 1.2061 -0.6474 -20.5638 0.1059 2.0984 5.7777 0.0000 0.0000 0.0000 10.1065 -7.7776 -27.5196 -8.8336 -16.6994 55.5128 -0.4172 -3.7874 -14.1848 -0.2202 -3.0208 8.3366 -8.0723 -2.7742 -2.1798 -0.5113 -3.4575 0.8812 3.8203 -1.8540 2.5859 -1.5186 2.7866 -21.5979 1.6501 3.3241 34.6873 1.5380 1.1108 15.8716 0.0000 -0.0000 0.0000 -85.0819 -9.9147 28.0819 11.6303 -19.2479 -1.9787 -0.0000 0.0000 -2.1307 22.0977 -9.1087 -3.6776 -7.1250 0.0000 -0.0000 -3.4616 20.1712 2.0594 0.0000 -0.0000 0.0000 87.8974 -8.3434 -2.0647 -10.9050 18.1425 -1.7462 0.0000 0.0000 4.0171 -9.7894 -30.6781 5.0309 7.1250 -0.0000 -0.0000 24.6318 -59.2954 -8.9357
